<?xml version="1.0" encoding="UTF-8" standalone="no"?>
<!DOCTYPE svg PUBLIC "-//W3C//DTD SVG 1.1//EN"
 "http://www.w3.org/Graphics/SVG/1.1/DTD/svg11.dtd">
<!-- Generated by graphviz version 8.0.5 (20230430.1635)
 -->
<!-- Title: Tree Pages: 1 -->
<svg width="1214pt" height="433pt"
 viewBox="0.00 0.00 1213.50 433.00" xmlns="http://www.w3.org/2000/svg" xmlns:xlink="http://www.w3.org/1999/xlink">
<g id="graph0" class="graph" transform="scale(1 1) rotate(0) translate(4 429)">
<title>Tree</title>
<polygon fill="white" stroke="none" points="-4,4 -4,-429 1209.5,-429 1209.5,4 -4,4"/>
<!-- 0 -->
<g id="node1" class="node">
<title>0</title>
<path fill="#efb285" stroke="black" d="M653.38,-425C653.38,-425 488.12,-425 488.12,-425 482.12,-425 476.12,-419 476.12,-413 476.12,-413 476.12,-354 476.12,-354 476.12,-348 482.12,-342 488.12,-342 488.12,-342 653.38,-342 653.38,-342 659.38,-342 665.38,-348 665.38,-354 665.38,-354 665.38,-413 665.38,-413 665.38,-419 659.38,-425 653.38,-425"/>
<text text-anchor="middle" x="570.75" y="-407.7" font-family="Helvetica,sans-Serif" font-size="14.00">RegularMedicine_yes &lt;= 0.5</text>
<text text-anchor="middle" x="570.75" y="-392.7" font-family="Helvetica,sans-Serif" font-size="14.00">entropy = 0.853</text>
<text text-anchor="middle" x="570.75" y="-377.7" font-family="Helvetica,sans-Serif" font-size="14.00">samples = 855</text>
<text text-anchor="middle" x="570.75" y="-362.7" font-family="Helvetica,sans-Serif" font-size="14.00">value = [617, 238]</text>
<text text-anchor="middle" x="570.75" y="-347.7" font-family="Helvetica,sans-Serif" font-size="14.00">class = diabetic_no</text>
</g>
<!-- 1 -->
<g id="node2" class="node">
<title>1</title>
<path fill="#e78c4a" stroke="black" d="M517.88,-306C517.88,-306 409.62,-306 409.62,-306 403.62,-306 397.62,-300 397.62,-294 397.62,-294 397.62,-235 397.62,-235 397.62,-229 403.62,-223 409.62,-223 409.62,-223 517.88,-223 517.88,-223 523.88,-223 529.88,-229 529.88,-235 529.88,-235 529.88,-294 529.88,-294 529.88,-300 523.88,-306 517.88,-306"/>
<text text-anchor="middle" x="463.75" y="-288.7" font-family="Helvetica,sans-Serif" font-size="14.00">SoundSleep &lt;= 5.5</text>
<text text-anchor="middle" x="463.75" y="-273.7" font-family="Helvetica,sans-Serif" font-size="14.00">entropy = 0.4</text>
<text text-anchor="middle" x="463.75" y="-258.7" font-family="Helvetica,sans-Serif" font-size="14.00">samples = 555</text>
<text text-anchor="middle" x="463.75" y="-243.7" font-family="Helvetica,sans-Serif" font-size="14.00">value = [511, 44]</text>
<text text-anchor="middle" x="463.75" y="-228.7" font-family="Helvetica,sans-Serif" font-size="14.00">class = diabetic_no</text>
</g>
<!-- 0&#45;&gt;1 -->
<g id="edge1" class="edge">
<title>0&#45;&gt;1</title>
<path fill="none" stroke="black" d="M533.33,-341.58C525.22,-332.71 516.56,-323.25 508.21,-314.12"/>
<polygon fill="black" stroke="black" points="511.3,-312.22 501.97,-307.2 506.14,-316.94 511.3,-312.22"/>
<text text-anchor="middle" x="499.86" y="-325.38" font-family="Helvetica,sans-Serif" font-size="14.00">True</text>
</g>
<!-- 8 -->
<g id="node9" class="node">
<title>8</title>
<path fill="#a5d3f3" stroke="black" d="M765.75,-306C765.75,-306 647.75,-306 647.75,-306 641.75,-306 635.75,-300 635.75,-294 635.75,-294 635.75,-235 635.75,-235 635.75,-229 641.75,-223 647.75,-223 647.75,-223 765.75,-223 765.75,-223 771.75,-223 777.75,-229 777.75,-235 777.75,-235 777.75,-294 777.75,-294 777.75,-300 771.75,-306 765.75,-306"/>
<text text-anchor="middle" x="706.75" y="-288.7" font-family="Helvetica,sans-Serif" font-size="14.00">BPLevel_high &lt;= 0.5</text>
<text text-anchor="middle" x="706.75" y="-273.7" font-family="Helvetica,sans-Serif" font-size="14.00">entropy = 0.937</text>
<text text-anchor="middle" x="706.75" y="-258.7" font-family="Helvetica,sans-Serif" font-size="14.00">samples = 300</text>
<text text-anchor="middle" x="706.75" y="-243.7" font-family="Helvetica,sans-Serif" font-size="14.00">value = [106, 194]</text>
<text text-anchor="middle" x="706.75" y="-228.7" font-family="Helvetica,sans-Serif" font-size="14.00">class = diabetic_yes</text>
</g>
<!-- 0&#45;&gt;8 -->
<g id="edge8" class="edge">
<title>0&#45;&gt;8</title>
<path fill="none" stroke="black" d="M618.32,-341.58C628.94,-332.44 640.29,-322.67 651.2,-313.29"/>
<polygon fill="black" stroke="black" points="653.14,-315.38 658.44,-306.2 648.58,-310.07 653.14,-315.38"/>
<text text-anchor="middle" x="657.57" y="-325.33" font-family="Helvetica,sans-Serif" font-size="14.00">False</text>
</g>
<!-- 2 -->
<g id="node3" class="node">
<title>2</title>
<path fill="#e6843d" stroke="black" d="M300.25,-187C300.25,-187 131.25,-187 131.25,-187 125.25,-187 119.25,-181 119.25,-175 119.25,-175 119.25,-116 119.25,-116 119.25,-110 125.25,-104 131.25,-104 131.25,-104 300.25,-104 300.25,-104 306.25,-104 312.25,-110 312.25,-116 312.25,-116 312.25,-175 312.25,-175 312.25,-181 306.25,-187 300.25,-187"/>
<text text-anchor="middle" x="215.75" y="-169.7" font-family="Helvetica,sans-Serif" font-size="14.00">PhysicallyActive_none &lt;= 0.5</text>
<text text-anchor="middle" x="215.75" y="-154.7" font-family="Helvetica,sans-Serif" font-size="14.00">entropy = 0.142</text>
<text text-anchor="middle" x="215.75" y="-139.7" font-family="Helvetica,sans-Serif" font-size="14.00">samples = 248</text>
<text text-anchor="middle" x="215.75" y="-124.7" font-family="Helvetica,sans-Serif" font-size="14.00">value = [243, 5]</text>
<text text-anchor="middle" x="215.75" y="-109.7" font-family="Helvetica,sans-Serif" font-size="14.00">class = diabetic_no</text>
</g>
<!-- 1&#45;&gt;2 -->
<g id="edge2" class="edge">
<title>1&#45;&gt;2</title>
<path fill="none" stroke="black" d="M397.29,-232.15C371.12,-219.8 340.56,-205.38 312.06,-191.94"/>
<polygon fill="black" stroke="black" points="314.02,-188.52 303.48,-187.42 311.03,-194.85 314.02,-188.52"/>
</g>
<!-- 5 -->
<g id="node6" class="node">
<title>5</title>
<path fill="#e99356" stroke="black" d="M522.38,-187C522.38,-187 405.12,-187 405.12,-187 399.12,-187 393.12,-181 393.12,-175 393.12,-175 393.12,-116 393.12,-116 393.12,-110 399.12,-104 405.12,-104 405.12,-104 522.38,-104 522.38,-104 528.38,-104 534.38,-110 534.38,-116 534.38,-116 534.38,-175 534.38,-175 534.38,-181 528.38,-187 522.38,-187"/>
<text text-anchor="middle" x="463.75" y="-169.7" font-family="Helvetica,sans-Serif" font-size="14.00">Pdiabetes_no &lt;= 0.5</text>
<text text-anchor="middle" x="463.75" y="-154.7" font-family="Helvetica,sans-Serif" font-size="14.00">entropy = 0.549</text>
<text text-anchor="middle" x="463.75" y="-139.7" font-family="Helvetica,sans-Serif" font-size="14.00">samples = 307</text>
<text text-anchor="middle" x="463.75" y="-124.7" font-family="Helvetica,sans-Serif" font-size="14.00">value = [268, 39]</text>
<text text-anchor="middle" x="463.75" y="-109.7" font-family="Helvetica,sans-Serif" font-size="14.00">class = diabetic_no</text>
</g>
<!-- 1&#45;&gt;5 -->
<g id="edge5" class="edge">
<title>1&#45;&gt;5</title>
<path fill="none" stroke="black" d="M463.75,-222.58C463.75,-214.7 463.75,-206.34 463.75,-198.17"/>
<polygon fill="black" stroke="black" points="467.25,-198.2 463.75,-188.2 460.25,-198.2 467.25,-198.2"/>
</g>
<!-- 3 -->
<g id="node4" class="node">
<title>3</title>
<path fill="#e5823a" stroke="black" d="M119.5,-68C119.5,-68 12,-68 12,-68 6,-68 0,-62 0,-56 0,-56 0,-12 0,-12 0,-6 6,0 12,0 12,0 119.5,0 119.5,0 125.5,0 131.5,-6 131.5,-12 131.5,-12 131.5,-56 131.5,-56 131.5,-62 125.5,-68 119.5,-68"/>
<text text-anchor="middle" x="65.75" y="-50.7" font-family="Helvetica,sans-Serif" font-size="14.00">entropy = 0.039</text>
<text text-anchor="middle" x="65.75" y="-35.7" font-family="Helvetica,sans-Serif" font-size="14.00">samples = 237</text>
<text text-anchor="middle" x="65.75" y="-20.7" font-family="Helvetica,sans-Serif" font-size="14.00">value = [236, 1]</text>
<text text-anchor="middle" x="65.75" y="-5.7" font-family="Helvetica,sans-Serif" font-size="14.00">class = diabetic_no</text>
</g>
<!-- 2&#45;&gt;3 -->
<g id="edge3" class="edge">
<title>2&#45;&gt;3</title>
<path fill="none" stroke="black" d="M159.9,-103.73C146.9,-94.24 133.09,-84.16 120.16,-74.72"/>
<polygon fill="black" stroke="black" points="122.51,-71.37 112.37,-68.3 118.38,-77.02 122.51,-71.37"/>
</g>
<!-- 4 -->
<g id="node5" class="node">
<title>4</title>
<path fill="#f4c9aa" stroke="black" d="M269.5,-68C269.5,-68 162,-68 162,-68 156,-68 150,-62 150,-56 150,-56 150,-12 150,-12 150,-6 156,0 162,0 162,0 269.5,0 269.5,0 275.5,0 281.5,-6 281.5,-12 281.5,-12 281.5,-56 281.5,-56 281.5,-62 275.5,-68 269.5,-68"/>
<text text-anchor="middle" x="215.75" y="-50.7" font-family="Helvetica,sans-Serif" font-size="14.00">entropy = 0.946</text>
<text text-anchor="middle" x="215.75" y="-35.7" font-family="Helvetica,sans-Serif" font-size="14.00">samples = 11</text>
<text text-anchor="middle" x="215.75" y="-20.7" font-family="Helvetica,sans-Serif" font-size="14.00">value = [7, 4]</text>
<text text-anchor="middle" x="215.75" y="-5.7" font-family="Helvetica,sans-Serif" font-size="14.00">class = diabetic_no</text>
</g>
<!-- 2&#45;&gt;4 -->
<g id="edge4" class="edge">
<title>2&#45;&gt;4</title>
<path fill="none" stroke="black" d="M215.75,-103.73C215.75,-95.7 215.75,-87.24 215.75,-79.11"/>
<polygon fill="black" stroke="black" points="219.25,-79.3 215.75,-69.3 212.25,-79.3 219.25,-79.3"/>
</g>
<!-- 6 -->
<g id="node7" class="node">
<title>6</title>
<path fill="#5aade9" stroke="black" d="M425.5,-68C425.5,-68 312,-68 312,-68 306,-68 300,-62 300,-56 300,-56 300,-12 300,-12 300,-6 306,0 312,0 312,0 425.5,0 425.5,0 431.5,0 437.5,-6 437.5,-12 437.5,-12 437.5,-56 437.5,-56 437.5,-62 431.5,-68 425.5,-68"/>
<text text-anchor="middle" x="368.75" y="-50.7" font-family="Helvetica,sans-Serif" font-size="14.00">entropy = 0.592</text>
<text text-anchor="middle" x="368.75" y="-35.7" font-family="Helvetica,sans-Serif" font-size="14.00">samples = 7</text>
<text text-anchor="middle" x="368.75" y="-20.7" font-family="Helvetica,sans-Serif" font-size="14.00">value = [1, 6]</text>
<text text-anchor="middle" x="368.75" y="-5.7" font-family="Helvetica,sans-Serif" font-size="14.00">class = diabetic_yes</text>
</g>
<!-- 5&#45;&gt;6 -->
<g id="edge6" class="edge">
<title>5&#45;&gt;6</title>
<path fill="none" stroke="black" d="M428.38,-103.73C420.62,-94.79 412.4,-85.32 404.63,-76.36"/>
<polygon fill="black" stroke="black" points="406.84,-74.56 397.64,-69.3 401.55,-79.15 406.84,-74.56"/>
</g>
<!-- 7 -->
<g id="node8" class="node">
<title>7</title>
<path fill="#e89151" stroke="black" d="M575.5,-68C575.5,-68 468,-68 468,-68 462,-68 456,-62 456,-56 456,-56 456,-12 456,-12 456,-6 462,0 468,0 468,0 575.5,0 575.5,0 581.5,0 587.5,-6 587.5,-12 587.5,-12 587.5,-56 587.5,-56 587.5,-62 581.5,-68 575.5,-68"/>
<text text-anchor="middle" x="521.75" y="-50.7" font-family="Helvetica,sans-Serif" font-size="14.00">entropy = 0.5</text>
<text text-anchor="middle" x="521.75" y="-35.7" font-family="Helvetica,sans-Serif" font-size="14.00">samples = 300</text>
<text text-anchor="middle" x="521.75" y="-20.7" font-family="Helvetica,sans-Serif" font-size="14.00">value = [267, 33]</text>
<text text-anchor="middle" x="521.75" y="-5.7" font-family="Helvetica,sans-Serif" font-size="14.00">class = diabetic_no</text>
</g>
<!-- 5&#45;&gt;7 -->
<g id="edge7" class="edge">
<title>5&#45;&gt;7</title>
<path fill="none" stroke="black" d="M485.35,-103.73C489.79,-95.34 494.48,-86.47 498.97,-78.01"/>
<polygon fill="black" stroke="black" points="502.52,-79.77 504.11,-69.3 496.34,-76.5 502.52,-79.77"/>
</g>
<!-- 9 -->
<g id="node10" class="node">
<title>9</title>
<path fill="#f8fbfe" stroke="black" d="M820.88,-187C820.88,-187 592.62,-187 592.62,-187 586.62,-187 580.62,-181 580.62,-175 580.62,-175 580.62,-116 580.62,-116 580.62,-110 586.62,-104 592.62,-104 592.62,-104 820.88,-104 820.88,-104 826.88,-104 832.88,-110 832.88,-116 832.88,-116 832.88,-175 832.88,-175 832.88,-181 826.88,-187 820.88,-187"/>
<text text-anchor="middle" x="706.75" y="-169.7" font-family="Helvetica,sans-Serif" font-size="14.00">PhysicallyActive_one hr or more &lt;= 0.5</text>
<text text-anchor="middle" x="706.75" y="-154.7" font-family="Helvetica,sans-Serif" font-size="14.00">entropy = 1.0</text>
<text text-anchor="middle" x="706.75" y="-139.7" font-family="Helvetica,sans-Serif" font-size="14.00">samples = 163</text>
<text text-anchor="middle" x="706.75" y="-124.7" font-family="Helvetica,sans-Serif" font-size="14.00">value = [80, 83]</text>
<text text-anchor="middle" x="706.75" y="-109.7" font-family="Helvetica,sans-Serif" font-size="14.00">class = diabetic_yes</text>
</g>
<!-- 8&#45;&gt;9 -->
<g id="edge9" class="edge">
<title>8&#45;&gt;9</title>
<path fill="none" stroke="black" d="M706.75,-222.58C706.75,-214.7 706.75,-206.34 706.75,-198.17"/>
<polygon fill="black" stroke="black" points="710.25,-198.2 706.75,-188.2 703.25,-198.2 710.25,-198.2"/>
</g>
<!-- 12 -->
<g id="node13" class="node">
<title>12</title>
<path fill="#67b4eb" stroke="black" d="M1063,-187C1063,-187 898.5,-187 898.5,-187 892.5,-187 886.5,-181 886.5,-175 886.5,-175 886.5,-116 886.5,-116 886.5,-110 892.5,-104 898.5,-104 898.5,-104 1063,-104 1063,-104 1069,-104 1075,-110 1075,-116 1075,-116 1075,-175 1075,-175 1075,-181 1069,-187 1063,-187"/>
<text text-anchor="middle" x="980.75" y="-169.7" font-family="Helvetica,sans-Serif" font-size="14.00">Family_Diabetes_yes &lt;= 0.5</text>
<text text-anchor="middle" x="980.75" y="-154.7" font-family="Helvetica,sans-Serif" font-size="14.00">entropy = 0.701</text>
<text text-anchor="middle" x="980.75" y="-139.7" font-family="Helvetica,sans-Serif" font-size="14.00">samples = 137</text>
<text text-anchor="middle" x="980.75" y="-124.7" font-family="Helvetica,sans-Serif" font-size="14.00">value = [26, 111]</text>
<text text-anchor="middle" x="980.75" y="-109.7" font-family="Helvetica,sans-Serif" font-size="14.00">class = diabetic_yes</text>
</g>
<!-- 8&#45;&gt;12 -->
<g id="edge12" class="edge">
<title>8&#45;&gt;12</title>
<path fill="none" stroke="black" d="M778.03,-233.07C807.91,-220.3 843.27,-205.2 876.02,-191.22"/>
<polygon fill="black" stroke="black" points="877.27,-194.06 885.1,-186.92 874.52,-187.63 877.27,-194.06"/>
</g>
<!-- 10 -->
<g id="node11" class="node">
<title>10</title>
<path fill="#f6d4bc" stroke="black" d="M725.5,-68C725.5,-68 618,-68 618,-68 612,-68 606,-62 606,-56 606,-56 606,-12 606,-12 606,-6 612,0 618,0 618,0 725.5,0 725.5,0 731.5,0 737.5,-6 737.5,-12 737.5,-12 737.5,-56 737.5,-56 737.5,-62 731.5,-68 725.5,-68"/>
<text text-anchor="middle" x="671.75" y="-50.7" font-family="Helvetica,sans-Serif" font-size="14.00">entropy = 0.97</text>
<text text-anchor="middle" x="671.75" y="-35.7" font-family="Helvetica,sans-Serif" font-size="14.00">samples = 123</text>
<text text-anchor="middle" x="671.75" y="-20.7" font-family="Helvetica,sans-Serif" font-size="14.00">value = [74, 49]</text>
<text text-anchor="middle" x="671.75" y="-5.7" font-family="Helvetica,sans-Serif" font-size="14.00">class = diabetic_no</text>
</g>
<!-- 9&#45;&gt;10 -->
<g id="edge10" class="edge">
<title>9&#45;&gt;10</title>
<path fill="none" stroke="black" d="M693.72,-103.73C691.09,-95.52 688.33,-86.86 685.67,-78.56"/>
<polygon fill="black" stroke="black" points="688.77,-77.76 682.39,-69.3 682.1,-79.89 688.77,-77.76"/>
</g>
<!-- 11 -->
<g id="node12" class="node">
<title>11</title>
<path fill="#5caeea" stroke="black" d="M881.5,-68C881.5,-68 768,-68 768,-68 762,-68 756,-62 756,-56 756,-56 756,-12 756,-12 756,-6 762,0 768,0 768,0 881.5,0 881.5,0 887.5,0 893.5,-6 893.5,-12 893.5,-12 893.5,-56 893.5,-56 893.5,-62 887.5,-68 881.5,-68"/>
<text text-anchor="middle" x="824.75" y="-50.7" font-family="Helvetica,sans-Serif" font-size="14.00">entropy = 0.61</text>
<text text-anchor="middle" x="824.75" y="-35.7" font-family="Helvetica,sans-Serif" font-size="14.00">samples = 40</text>
<text text-anchor="middle" x="824.75" y="-20.7" font-family="Helvetica,sans-Serif" font-size="14.00">value = [6, 34]</text>
<text text-anchor="middle" x="824.75" y="-5.7" font-family="Helvetica,sans-Serif" font-size="14.00">class = diabetic_yes</text>
</g>
<!-- 9&#45;&gt;11 -->
<g id="edge11" class="edge">
<title>9&#45;&gt;11</title>
<path fill="none" stroke="black" d="M750.69,-103.73C760.62,-94.51 771.15,-84.74 781.07,-75.53"/>
<polygon fill="black" stroke="black" points="782.92,-78.67 787.87,-69.3 778.15,-73.54 782.92,-78.67"/>
</g>
<!-- 13 -->
<g id="node14" class="node">
<title>13</title>
<path fill="#bbddf6" stroke="black" d="M1037.5,-68C1037.5,-68 924,-68 924,-68 918,-68 912,-62 912,-56 912,-56 912,-12 912,-12 912,-6 918,0 924,0 924,0 1037.5,0 1037.5,0 1043.5,0 1049.5,-6 1049.5,-12 1049.5,-12 1049.5,-56 1049.5,-56 1049.5,-62 1043.5,-68 1037.5,-68"/>
<text text-anchor="middle" x="980.75" y="-50.7" font-family="Helvetica,sans-Serif" font-size="14.00">entropy = 0.969</text>
<text text-anchor="middle" x="980.75" y="-35.7" font-family="Helvetica,sans-Serif" font-size="14.00">samples = 58</text>
<text text-anchor="middle" x="980.75" y="-20.7" font-family="Helvetica,sans-Serif" font-size="14.00">value = [23, 35]</text>
<text text-anchor="middle" x="980.75" y="-5.7" font-family="Helvetica,sans-Serif" font-size="14.00">class = diabetic_yes</text>
</g>
<!-- 12&#45;&gt;13 -->
<g id="edge13" class="edge">
<title>12&#45;&gt;13</title>
<path fill="none" stroke="black" d="M980.75,-103.73C980.75,-95.7 980.75,-87.24 980.75,-79.11"/>
<polygon fill="black" stroke="black" points="984.25,-79.3 980.75,-69.3 977.25,-79.3 984.25,-79.3"/>
</g>
<!-- 14 -->
<g id="node15" class="node">
<title>14</title>
<path fill="#41a1e6" stroke="black" d="M1193.5,-68C1193.5,-68 1080,-68 1080,-68 1074,-68 1068,-62 1068,-56 1068,-56 1068,-12 1068,-12 1068,-6 1074,0 1080,0 1080,0 1193.5,0 1193.5,0 1199.5,0 1205.5,-6 1205.5,-12 1205.5,-12 1205.5,-56 1205.5,-56 1205.5,-62 1199.5,-68 1193.5,-68"/>
<text text-anchor="middle" x="1136.75" y="-50.7" font-family="Helvetica,sans-Serif" font-size="14.00">entropy = 0.233</text>
<text text-anchor="middle" x="1136.75" y="-35.7" font-family="Helvetica,sans-Serif" font-size="14.00">samples = 79</text>
<text text-anchor="middle" x="1136.75" y="-20.7" font-family="Helvetica,sans-Serif" font-size="14.00">value = [3, 76]</text>
<text text-anchor="middle" x="1136.75" y="-5.7" font-family="Helvetica,sans-Serif" font-size="14.00">class = diabetic_yes</text>
</g>
<!-- 12&#45;&gt;14 -->
<g id="edge14" class="edge">
<title>12&#45;&gt;14</title>
<path fill="none" stroke="black" d="M1038.84,-103.73C1052.48,-94.15 1067,-83.96 1080.56,-74.44"/>
<polygon fill="black" stroke="black" points="1082.14,-76.91 1088.31,-68.3 1078.11,-71.18 1082.14,-76.91"/>
</g>
</g>
</svg>
