<?xml version="1.0" encoding="UTF-8" standalone="no"?>
<!DOCTYPE svg PUBLIC "-//W3C//DTD SVG 1.1//EN"
 "http://www.w3.org/Graphics/SVG/1.1/DTD/svg11.dtd">
<!-- Generated by graphviz version 8.0.5 (20230430.1635)
 -->
<!-- Title: Tree Pages: 1 -->
<svg width="1220pt" height="433pt"
 viewBox="0.00 0.00 1219.50 433.00" xmlns="http://www.w3.org/2000/svg" xmlns:xlink="http://www.w3.org/1999/xlink">
<g id="graph0" class="graph" transform="scale(1 1) rotate(0) translate(4 429)">
<title>Tree</title>
<polygon fill="white" stroke="none" points="-4,4 -4,-429 1215.5,-429 1215.5,4 -4,4"/>
<!-- 0 -->
<g id="node1" class="node">
<title>0</title>
<path fill="#f3c4a2" stroke="black" d="M661.5,-425C661.5,-425 548,-425 548,-425 542,-425 536,-419 536,-413 536,-413 536,-354 536,-354 536,-348 542,-342 548,-342 548,-342 661.5,-342 661.5,-342 667.5,-342 673.5,-348 673.5,-354 673.5,-354 673.5,-413 673.5,-413 673.5,-419 667.5,-425 661.5,-425"/>
<text text-anchor="middle" x="604.75" y="-407.7" font-family="Helvetica,sans-Serif" font-size="14.00">Glucose &lt;= 123.5</text>
<text text-anchor="middle" x="604.75" y="-392.7" font-family="Helvetica,sans-Serif" font-size="14.00">entropy = 0.931</text>
<text text-anchor="middle" x="604.75" y="-377.7" font-family="Helvetica,sans-Serif" font-size="14.00">samples = 1600</text>
<text text-anchor="middle" x="604.75" y="-362.7" font-family="Helvetica,sans-Serif" font-size="14.00">value = [1045, 555]</text>
<text text-anchor="middle" x="604.75" y="-347.7" font-family="Helvetica,sans-Serif" font-size="14.00">class = diabetic_yes</text>
</g>
<!-- 1 -->
<g id="node2" class="node">
<title>1</title>
<path fill="#ea9b61" stroke="black" d="M508.5,-306C508.5,-306 395,-306 395,-306 389,-306 383,-300 383,-294 383,-294 383,-235 383,-235 383,-229 389,-223 395,-223 395,-223 508.5,-223 508.5,-223 514.5,-223 520.5,-229 520.5,-235 520.5,-235 520.5,-294 520.5,-294 520.5,-300 514.5,-306 508.5,-306"/>
<text text-anchor="middle" x="451.75" y="-288.7" font-family="Helvetica,sans-Serif" font-size="14.00">BMI &lt;= 26.9</text>
<text text-anchor="middle" x="451.75" y="-273.7" font-family="Helvetica,sans-Serif" font-size="14.00">entropy = 0.655</text>
<text text-anchor="middle" x="451.75" y="-258.7" font-family="Helvetica,sans-Serif" font-size="14.00">samples = 912</text>
<text text-anchor="middle" x="451.75" y="-243.7" font-family="Helvetica,sans-Serif" font-size="14.00">value = [758, 154]</text>
<text text-anchor="middle" x="451.75" y="-228.7" font-family="Helvetica,sans-Serif" font-size="14.00">class = diabetic_yes</text>
</g>
<!-- 0&#45;&gt;1 -->
<g id="edge1" class="edge">
<title>0&#45;&gt;1</title>
<path fill="none" stroke="black" d="M551.24,-341.58C539.13,-332.32 526.16,-322.41 513.74,-312.9"/>
<polygon fill="black" stroke="black" points="516.3,-309.69 506.23,-306.4 512.05,-315.25 516.3,-309.69"/>
<text text-anchor="middle" x="508.54" y="-325.38" font-family="Helvetica,sans-Serif" font-size="14.00">True</text>
</g>
<!-- 8 -->
<g id="node9" class="node">
<title>8</title>
<path fill="#c7e3f8" stroke="black" d="M814.5,-306C814.5,-306 707,-306 707,-306 701,-306 695,-300 695,-294 695,-294 695,-235 695,-235 695,-229 701,-223 707,-223 707,-223 814.5,-223 814.5,-223 820.5,-223 826.5,-229 826.5,-235 826.5,-235 826.5,-294 826.5,-294 826.5,-300 820.5,-306 814.5,-306"/>
<text text-anchor="middle" x="760.75" y="-288.7" font-family="Helvetica,sans-Serif" font-size="14.00">BMI &lt;= 29.95</text>
<text text-anchor="middle" x="760.75" y="-273.7" font-family="Helvetica,sans-Serif" font-size="14.00">entropy = 0.98</text>
<text text-anchor="middle" x="760.75" y="-258.7" font-family="Helvetica,sans-Serif" font-size="14.00">samples = 688</text>
<text text-anchor="middle" x="760.75" y="-243.7" font-family="Helvetica,sans-Serif" font-size="14.00">value = [287, 401]</text>
<text text-anchor="middle" x="760.75" y="-228.7" font-family="Helvetica,sans-Serif" font-size="14.00">class = diabetic_no</text>
</g>
<!-- 0&#45;&gt;8 -->
<g id="edge8" class="edge">
<title>0&#45;&gt;8</title>
<path fill="none" stroke="black" d="M659.31,-341.58C671.66,-332.32 684.88,-322.41 697.55,-312.9"/>
<polygon fill="black" stroke="black" points="699.32,-315.2 705.22,-306.4 695.12,-309.6 699.32,-315.2"/>
<text text-anchor="middle" x="702.68" y="-325.35" font-family="Helvetica,sans-Serif" font-size="14.00">False</text>
</g>
<!-- 2 -->
<g id="node3" class="node">
<title>2</title>
<path fill="#e5823a" stroke="black" d="M281.5,-187C281.5,-187 168,-187 168,-187 162,-187 156,-181 156,-175 156,-175 156,-116 156,-116 156,-110 162,-104 168,-104 168,-104 281.5,-104 281.5,-104 287.5,-104 293.5,-110 293.5,-116 293.5,-116 293.5,-175 293.5,-175 293.5,-181 287.5,-187 281.5,-187"/>
<text text-anchor="middle" x="224.75" y="-169.7" font-family="Helvetica,sans-Serif" font-size="14.00">Insulin &lt;= 48.5</text>
<text text-anchor="middle" x="224.75" y="-154.7" font-family="Helvetica,sans-Serif" font-size="14.00">entropy = 0.038</text>
<text text-anchor="middle" x="224.75" y="-139.7" font-family="Helvetica,sans-Serif" font-size="14.00">samples = 248</text>
<text text-anchor="middle" x="224.75" y="-124.7" font-family="Helvetica,sans-Serif" font-size="14.00">value = [247, 1]</text>
<text text-anchor="middle" x="224.75" y="-109.7" font-family="Helvetica,sans-Serif" font-size="14.00">class = diabetic_yes</text>
</g>
<!-- 1&#45;&gt;2 -->
<g id="edge2" class="edge">
<title>1&#45;&gt;2</title>
<path fill="none" stroke="black" d="M382.72,-227.92C357.73,-215.04 329.34,-200.41 303.58,-187.13"/>
<polygon fill="black" stroke="black" points="305.34,-183.58 294.84,-182.11 302.13,-189.81 305.34,-183.58"/>
</g>
<!-- 5 -->
<g id="node6" class="node">
<title>5</title>
<path fill="#eda774" stroke="black" d="M508.5,-187C508.5,-187 395,-187 395,-187 389,-187 383,-181 383,-175 383,-175 383,-116 383,-116 383,-110 389,-104 395,-104 395,-104 508.5,-104 508.5,-104 514.5,-104 520.5,-110 520.5,-116 520.5,-116 520.5,-175 520.5,-175 520.5,-181 514.5,-187 508.5,-187"/>
<text text-anchor="middle" x="451.75" y="-169.7" font-family="Helvetica,sans-Serif" font-size="14.00">Pregnancies &lt;= 6.5</text>
<text text-anchor="middle" x="451.75" y="-154.7" font-family="Helvetica,sans-Serif" font-size="14.00">entropy = 0.779</text>
<text text-anchor="middle" x="451.75" y="-139.7" font-family="Helvetica,sans-Serif" font-size="14.00">samples = 664</text>
<text text-anchor="middle" x="451.75" y="-124.7" font-family="Helvetica,sans-Serif" font-size="14.00">value = [511, 153]</text>
<text text-anchor="middle" x="451.75" y="-109.7" font-family="Helvetica,sans-Serif" font-size="14.00">class = diabetic_yes</text>
</g>
<!-- 1&#45;&gt;5 -->
<g id="edge5" class="edge">
<title>1&#45;&gt;5</title>
<path fill="none" stroke="black" d="M451.75,-222.58C451.75,-214.7 451.75,-206.34 451.75,-198.17"/>
<polygon fill="black" stroke="black" points="455.25,-198.2 451.75,-188.2 448.25,-198.2 455.25,-198.2"/>
</g>
<!-- 3 -->
<g id="node4" class="node">
<title>3</title>
<path fill="#e68844" stroke="black" d="M125.5,-68C125.5,-68 12,-68 12,-68 6,-68 0,-62 0,-56 0,-56 0,-12 0,-12 0,-6 6,0 12,0 12,0 125.5,0 125.5,0 131.5,0 137.5,-6 137.5,-12 137.5,-12 137.5,-56 137.5,-56 137.5,-62 131.5,-68 125.5,-68"/>
<text text-anchor="middle" x="68.75" y="-50.7" font-family="Helvetica,sans-Serif" font-size="14.00">entropy = 0.297</text>
<text text-anchor="middle" x="68.75" y="-35.7" font-family="Helvetica,sans-Serif" font-size="14.00">samples = 19</text>
<text text-anchor="middle" x="68.75" y="-20.7" font-family="Helvetica,sans-Serif" font-size="14.00">value = [18, 1]</text>
<text text-anchor="middle" x="68.75" y="-5.7" font-family="Helvetica,sans-Serif" font-size="14.00">class = diabetic_yes</text>
</g>
<!-- 2&#45;&gt;3 -->
<g id="edge3" class="edge">
<title>2&#45;&gt;3</title>
<path fill="none" stroke="black" d="M166.66,-103.73C153.02,-94.15 138.5,-83.96 124.94,-74.44"/>
<polygon fill="black" stroke="black" points="127.39,-71.18 117.19,-68.3 123.36,-76.91 127.39,-71.18"/>
</g>
<!-- 4 -->
<g id="node5" class="node">
<title>4</title>
<path fill="#e58139" stroke="black" d="M281.5,-68C281.5,-68 168,-68 168,-68 162,-68 156,-62 156,-56 156,-56 156,-12 156,-12 156,-6 162,0 168,0 168,0 281.5,0 281.5,0 287.5,0 293.5,-6 293.5,-12 293.5,-12 293.5,-56 293.5,-56 293.5,-62 287.5,-68 281.5,-68"/>
<text text-anchor="middle" x="224.75" y="-50.7" font-family="Helvetica,sans-Serif" font-size="14.00">entropy = 0.0</text>
<text text-anchor="middle" x="224.75" y="-35.7" font-family="Helvetica,sans-Serif" font-size="14.00">samples = 229</text>
<text text-anchor="middle" x="224.75" y="-20.7" font-family="Helvetica,sans-Serif" font-size="14.00">value = [229, 0]</text>
<text text-anchor="middle" x="224.75" y="-5.7" font-family="Helvetica,sans-Serif" font-size="14.00">class = diabetic_yes</text>
</g>
<!-- 2&#45;&gt;4 -->
<g id="edge4" class="edge">
<title>2&#45;&gt;4</title>
<path fill="none" stroke="black" d="M224.75,-103.73C224.75,-95.7 224.75,-87.24 224.75,-79.11"/>
<polygon fill="black" stroke="black" points="228.25,-79.3 224.75,-69.3 221.25,-79.3 228.25,-79.3"/>
</g>
<!-- 6 -->
<g id="node7" class="node">
<title>6</title>
<path fill="#ea9c63" stroke="black" d="M437.5,-68C437.5,-68 324,-68 324,-68 318,-68 312,-62 312,-56 312,-56 312,-12 312,-12 312,-6 318,0 324,0 324,0 437.5,0 437.5,0 443.5,0 449.5,-6 449.5,-12 449.5,-12 449.5,-56 449.5,-56 449.5,-62 443.5,-68 437.5,-68"/>
<text text-anchor="middle" x="380.75" y="-50.7" font-family="Helvetica,sans-Serif" font-size="14.00">entropy = 0.666</text>
<text text-anchor="middle" x="380.75" y="-35.7" font-family="Helvetica,sans-Serif" font-size="14.00">samples = 558</text>
<text text-anchor="middle" x="380.75" y="-20.7" font-family="Helvetica,sans-Serif" font-size="14.00">value = [461, 97]</text>
<text text-anchor="middle" x="380.75" y="-5.7" font-family="Helvetica,sans-Serif" font-size="14.00">class = diabetic_yes</text>
</g>
<!-- 5&#45;&gt;6 -->
<g id="edge6" class="edge">
<title>5&#45;&gt;6</title>
<path fill="none" stroke="black" d="M425.31,-103.73C419.75,-95.15 413.88,-86.09 408.28,-77.46"/>
<polygon fill="black" stroke="black" points="410.72,-75.79 402.34,-69.3 404.85,-79.59 410.72,-75.79"/>
</g>
<!-- 7 -->
<g id="node8" class="node">
<title>7</title>
<path fill="#eaf4fc" stroke="black" d="M587.5,-68C587.5,-68 480,-68 480,-68 474,-68 468,-62 468,-56 468,-56 468,-12 468,-12 468,-6 474,0 480,0 480,0 587.5,0 587.5,0 593.5,0 599.5,-6 599.5,-12 599.5,-12 599.5,-56 599.5,-56 599.5,-62 593.5,-68 587.5,-68"/>
<text text-anchor="middle" x="533.75" y="-50.7" font-family="Helvetica,sans-Serif" font-size="14.00">entropy = 0.998</text>
<text text-anchor="middle" x="533.75" y="-35.7" font-family="Helvetica,sans-Serif" font-size="14.00">samples = 106</text>
<text text-anchor="middle" x="533.75" y="-20.7" font-family="Helvetica,sans-Serif" font-size="14.00">value = [50, 56]</text>
<text text-anchor="middle" x="533.75" y="-5.7" font-family="Helvetica,sans-Serif" font-size="14.00">class = diabetic_no</text>
</g>
<!-- 5&#45;&gt;7 -->
<g id="edge7" class="edge">
<title>5&#45;&gt;7</title>
<path fill="none" stroke="black" d="M482.28,-103.73C488.84,-94.97 495.78,-85.7 502.37,-76.91"/>
<polygon fill="black" stroke="black" points="505.62,-79.4 508.81,-69.3 500.02,-75.21 505.62,-79.4"/>
</g>
<!-- 9 -->
<g id="node10" class="node">
<title>9</title>
<path fill="#f2bf9b" stroke="black" d="M826.12,-187C826.12,-187 695.38,-187 695.38,-187 689.38,-187 683.38,-181 683.38,-175 683.38,-175 683.38,-116 683.38,-116 683.38,-110 689.38,-104 695.38,-104 695.38,-104 826.12,-104 826.12,-104 832.12,-104 838.12,-110 838.12,-116 838.12,-116 838.12,-175 838.12,-175 838.12,-181 832.12,-187 826.12,-187"/>
<text text-anchor="middle" x="760.75" y="-169.7" font-family="Helvetica,sans-Serif" font-size="14.00">BloodPressure &lt;= 61.5</text>
<text text-anchor="middle" x="760.75" y="-154.7" font-family="Helvetica,sans-Serif" font-size="14.00">entropy = 0.915</text>
<text text-anchor="middle" x="760.75" y="-139.7" font-family="Helvetica,sans-Serif" font-size="14.00">samples = 206</text>
<text text-anchor="middle" x="760.75" y="-124.7" font-family="Helvetica,sans-Serif" font-size="14.00">value = [138, 68]</text>
<text text-anchor="middle" x="760.75" y="-109.7" font-family="Helvetica,sans-Serif" font-size="14.00">class = diabetic_yes</text>
</g>
<!-- 8&#45;&gt;9 -->
<g id="edge9" class="edge">
<title>8&#45;&gt;9</title>
<path fill="none" stroke="black" d="M760.75,-222.58C760.75,-214.7 760.75,-206.34 760.75,-198.17"/>
<polygon fill="black" stroke="black" points="764.25,-198.2 760.75,-188.2 757.25,-198.2 764.25,-198.2"/>
</g>
<!-- 12 -->
<g id="node13" class="node">
<title>12</title>
<path fill="#92c9f1" stroke="black" d="M1049.5,-187C1049.5,-187 942,-187 942,-187 936,-187 930,-181 930,-175 930,-175 930,-116 930,-116 930,-110 936,-104 942,-104 942,-104 1049.5,-104 1049.5,-104 1055.5,-104 1061.5,-110 1061.5,-116 1061.5,-116 1061.5,-175 1061.5,-175 1061.5,-181 1055.5,-187 1049.5,-187"/>
<text text-anchor="middle" x="995.75" y="-169.7" font-family="Helvetica,sans-Serif" font-size="14.00">Glucose &lt;= 154.5</text>
<text text-anchor="middle" x="995.75" y="-154.7" font-family="Helvetica,sans-Serif" font-size="14.00">entropy = 0.892</text>
<text text-anchor="middle" x="995.75" y="-139.7" font-family="Helvetica,sans-Serif" font-size="14.00">samples = 482</text>
<text text-anchor="middle" x="995.75" y="-124.7" font-family="Helvetica,sans-Serif" font-size="14.00">value = [149, 333]</text>
<text text-anchor="middle" x="995.75" y="-109.7" font-family="Helvetica,sans-Serif" font-size="14.00">class = diabetic_no</text>
</g>
<!-- 8&#45;&gt;12 -->
<g id="edge12" class="edge">
<title>8&#45;&gt;12</title>
<path fill="none" stroke="black" d="M826.84,-230.6C855.87,-216.14 890.12,-199.09 920.16,-184.13"/>
<polygon fill="black" stroke="black" points="921.36,-186.95 928.75,-179.36 918.24,-180.68 921.36,-186.95"/>
</g>
<!-- 10 -->
<g id="node11" class="node">
<title>10</title>
<path fill="#e6843e" stroke="black" d="M743.5,-68C743.5,-68 630,-68 630,-68 624,-68 618,-62 618,-56 618,-56 618,-12 618,-12 618,-6 624,0 630,0 630,0 743.5,0 743.5,0 749.5,0 755.5,-6 755.5,-12 755.5,-12 755.5,-56 755.5,-56 755.5,-62 749.5,-68 743.5,-68"/>
<text text-anchor="middle" x="686.75" y="-50.7" font-family="Helvetica,sans-Serif" font-size="14.00">entropy = 0.169</text>
<text text-anchor="middle" x="686.75" y="-35.7" font-family="Helvetica,sans-Serif" font-size="14.00">samples = 40</text>
<text text-anchor="middle" x="686.75" y="-20.7" font-family="Helvetica,sans-Serif" font-size="14.00">value = [39, 1]</text>
<text text-anchor="middle" x="686.75" y="-5.7" font-family="Helvetica,sans-Serif" font-size="14.00">class = diabetic_yes</text>
</g>
<!-- 9&#45;&gt;10 -->
<g id="edge10" class="edge">
<title>9&#45;&gt;10</title>
<path fill="none" stroke="black" d="M733.2,-103.73C727.34,-95.06 721.15,-85.9 715.26,-77.18"/>
<polygon fill="black" stroke="black" points="717.75,-75.63 709.25,-69.3 711.95,-79.54 717.75,-75.63"/>
</g>
<!-- 11 -->
<g id="node12" class="node">
<title>11</title>
<path fill="#f7d6bf" stroke="black" d="M899.5,-68C899.5,-68 786,-68 786,-68 780,-68 774,-62 774,-56 774,-56 774,-12 774,-12 774,-6 780,0 786,0 786,0 899.5,0 899.5,0 905.5,0 911.5,-6 911.5,-12 911.5,-12 911.5,-56 911.5,-56 911.5,-62 905.5,-68 899.5,-68"/>
<text text-anchor="middle" x="842.75" y="-50.7" font-family="Helvetica,sans-Serif" font-size="14.00">entropy = 0.973</text>
<text text-anchor="middle" x="842.75" y="-35.7" font-family="Helvetica,sans-Serif" font-size="14.00">samples = 166</text>
<text text-anchor="middle" x="842.75" y="-20.7" font-family="Helvetica,sans-Serif" font-size="14.00">value = [99, 67]</text>
<text text-anchor="middle" x="842.75" y="-5.7" font-family="Helvetica,sans-Serif" font-size="14.00">class = diabetic_yes</text>
</g>
<!-- 9&#45;&gt;11 -->
<g id="edge11" class="edge">
<title>9&#45;&gt;11</title>
<path fill="none" stroke="black" d="M791.28,-103.73C797.84,-94.97 804.78,-85.7 811.37,-76.91"/>
<polygon fill="black" stroke="black" points="814.62,-79.4 817.81,-69.3 809.02,-75.21 814.62,-79.4"/>
</g>
<!-- 13 -->
<g id="node14" class="node">
<title>13</title>
<path fill="#d0e8f9" stroke="black" d="M1049.5,-68C1049.5,-68 942,-68 942,-68 936,-68 930,-62 930,-56 930,-56 930,-12 930,-12 930,-6 936,0 942,0 942,0 1049.5,0 1049.5,0 1055.5,0 1061.5,-6 1061.5,-12 1061.5,-12 1061.5,-56 1061.5,-56 1061.5,-62 1055.5,-68 1049.5,-68"/>
<text text-anchor="middle" x="995.75" y="-50.7" font-family="Helvetica,sans-Serif" font-size="14.00">entropy = 0.987</text>
<text text-anchor="middle" x="995.75" y="-35.7" font-family="Helvetica,sans-Serif" font-size="14.00">samples = 263</text>
<text text-anchor="middle" x="995.75" y="-20.7" font-family="Helvetica,sans-Serif" font-size="14.00">value = [114, 149]</text>
<text text-anchor="middle" x="995.75" y="-5.7" font-family="Helvetica,sans-Serif" font-size="14.00">class = diabetic_no</text>
</g>
<!-- 12&#45;&gt;13 -->
<g id="edge13" class="edge">
<title>12&#45;&gt;13</title>
<path fill="none" stroke="black" d="M995.75,-103.73C995.75,-95.7 995.75,-87.24 995.75,-79.11"/>
<polygon fill="black" stroke="black" points="999.25,-79.3 995.75,-69.3 992.25,-79.3 999.25,-79.3"/>
</g>
<!-- 14 -->
<g id="node15" class="node">
<title>14</title>
<path fill="#5fb0ea" stroke="black" d="M1199.5,-68C1199.5,-68 1092,-68 1092,-68 1086,-68 1080,-62 1080,-56 1080,-56 1080,-12 1080,-12 1080,-6 1086,0 1092,0 1092,0 1199.5,0 1199.5,0 1205.5,0 1211.5,-6 1211.5,-12 1211.5,-12 1211.5,-56 1211.5,-56 1211.5,-62 1205.5,-68 1199.5,-68"/>
<text text-anchor="middle" x="1145.75" y="-50.7" font-family="Helvetica,sans-Serif" font-size="14.00">entropy = 0.634</text>
<text text-anchor="middle" x="1145.75" y="-35.7" font-family="Helvetica,sans-Serif" font-size="14.00">samples = 219</text>
<text text-anchor="middle" x="1145.75" y="-20.7" font-family="Helvetica,sans-Serif" font-size="14.00">value = [35, 184]</text>
<text text-anchor="middle" x="1145.75" y="-5.7" font-family="Helvetica,sans-Serif" font-size="14.00">class = diabetic_no</text>
</g>
<!-- 12&#45;&gt;14 -->
<g id="edge14" class="edge">
<title>12&#45;&gt;14</title>
<path fill="none" stroke="black" d="M1051.6,-103.73C1064.6,-94.24 1078.41,-84.16 1091.34,-74.72"/>
<polygon fill="black" stroke="black" points="1093.12,-77.02 1099.13,-68.3 1088.99,-71.37 1093.12,-77.02"/>
</g>
</g>
</svg>
