<?xml version="1.0" encoding="UTF-8" standalone="no"?>
<!DOCTYPE svg PUBLIC "-//W3C//DTD SVG 1.1//EN"
 "http://www.w3.org/Graphics/SVG/1.1/DTD/svg11.dtd">
<!-- Generated by graphviz version 8.0.5 (20230430.1635)
 -->
<!-- Title: Tree Pages: 1 -->
<svg width="1214pt" height="433pt"
 viewBox="0.00 0.00 1213.50 433.00" xmlns="http://www.w3.org/2000/svg" xmlns:xlink="http://www.w3.org/1999/xlink">
<g id="graph0" class="graph" transform="scale(1 1) rotate(0) translate(4 429)">
<title>Tree</title>
<polygon fill="white" stroke="none" points="-4,4 -4,-429 1209.5,-429 1209.5,4 -4,4"/>
<!-- 0 -->
<g id="node1" class="node">
<title>0</title>
<path fill="#efb285" stroke="black" d="M663.38,-425C663.38,-425 498.12,-425 498.12,-425 492.12,-425 486.12,-419 486.12,-413 486.12,-413 486.12,-354 486.12,-354 486.12,-348 492.12,-342 498.12,-342 498.12,-342 663.38,-342 663.38,-342 669.38,-342 675.38,-348 675.38,-354 675.38,-354 675.38,-413 675.38,-413 675.38,-419 669.38,-425 663.38,-425"/>
<text text-anchor="middle" x="580.75" y="-407.7" font-family="Helvetica,sans-Serif" font-size="14.00">RegularMedicine_yes &lt;= 0.5</text>
<text text-anchor="middle" x="580.75" y="-392.7" font-family="Helvetica,sans-Serif" font-size="14.00">entropy = 0.853</text>
<text text-anchor="middle" x="580.75" y="-377.7" font-family="Helvetica,sans-Serif" font-size="14.00">samples = 855</text>
<text text-anchor="middle" x="580.75" y="-362.7" font-family="Helvetica,sans-Serif" font-size="14.00">value = [617, 238]</text>
<text text-anchor="middle" x="580.75" y="-347.7" font-family="Helvetica,sans-Serif" font-size="14.00">class = diabetic_no</text>
</g>
<!-- 1 -->
<g id="node2" class="node">
<title>1</title>
<path fill="#e78c4a" stroke="black" d="M527.12,-306C527.12,-306 396.38,-306 396.38,-306 390.38,-306 384.38,-300 384.38,-294 384.38,-294 384.38,-235 384.38,-235 384.38,-229 390.38,-223 396.38,-223 396.38,-223 527.12,-223 527.12,-223 533.12,-223 539.12,-229 539.12,-235 539.12,-235 539.12,-294 539.12,-294 539.12,-300 533.12,-306 527.12,-306"/>
<text text-anchor="middle" x="461.75" y="-288.7" font-family="Helvetica,sans-Serif" font-size="14.00">Age_60 or older &lt;= 0.5</text>
<text text-anchor="middle" x="461.75" y="-273.7" font-family="Helvetica,sans-Serif" font-size="14.00">entropy = 0.4</text>
<text text-anchor="middle" x="461.75" y="-258.7" font-family="Helvetica,sans-Serif" font-size="14.00">samples = 555</text>
<text text-anchor="middle" x="461.75" y="-243.7" font-family="Helvetica,sans-Serif" font-size="14.00">value = [511, 44]</text>
<text text-anchor="middle" x="461.75" y="-228.7" font-family="Helvetica,sans-Serif" font-size="14.00">class = diabetic_no</text>
</g>
<!-- 0&#45;&gt;1 -->
<g id="edge1" class="edge">
<title>0&#45;&gt;1</title>
<path fill="none" stroke="black" d="M539.13,-341.58C530.02,-332.62 520.29,-323.06 510.92,-313.84"/>
<polygon fill="black" stroke="black" points="513.73,-311.72 504.15,-307.2 508.82,-316.71 513.73,-311.72"/>
<text text-anchor="middle" x="503.36" y="-325.4" font-family="Helvetica,sans-Serif" font-size="14.00">True</text>
</g>
<!-- 8 -->
<g id="node9" class="node">
<title>8</title>
<path fill="#a5d3f3" stroke="black" d="M790.25,-306C790.25,-306 651.25,-306 651.25,-306 645.25,-306 639.25,-300 639.25,-294 639.25,-294 639.25,-235 639.25,-235 639.25,-229 645.25,-223 651.25,-223 651.25,-223 790.25,-223 790.25,-223 796.25,-223 802.25,-229 802.25,-235 802.25,-235 802.25,-294 802.25,-294 802.25,-300 796.25,-306 790.25,-306"/>
<text text-anchor="middle" x="720.75" y="-288.7" font-family="Helvetica,sans-Serif" font-size="14.00">Age_less than 40 &lt;= 0.5</text>
<text text-anchor="middle" x="720.75" y="-273.7" font-family="Helvetica,sans-Serif" font-size="14.00">entropy = 0.937</text>
<text text-anchor="middle" x="720.75" y="-258.7" font-family="Helvetica,sans-Serif" font-size="14.00">samples = 300</text>
<text text-anchor="middle" x="720.75" y="-243.7" font-family="Helvetica,sans-Serif" font-size="14.00">value = [106, 194]</text>
<text text-anchor="middle" x="720.75" y="-228.7" font-family="Helvetica,sans-Serif" font-size="14.00">class = diabetic_yes</text>
</g>
<!-- 0&#45;&gt;8 -->
<g id="edge8" class="edge">
<title>0&#45;&gt;8</title>
<path fill="none" stroke="black" d="M629.72,-341.58C640.76,-332.35 652.57,-322.48 663.9,-313.01"/>
<polygon fill="black" stroke="black" points="665.62,-315.3 671.05,-306.2 661.13,-309.93 665.62,-315.3"/>
<text text-anchor="middle" x="669.82" y="-325.3" font-family="Helvetica,sans-Serif" font-size="14.00">False</text>
</g>
<!-- 2 -->
<g id="node3" class="node">
<title>2</title>
<path fill="#e78844" stroke="black" d="M269.88,-187C269.88,-187 161.62,-187 161.62,-187 155.62,-187 149.62,-181 149.62,-175 149.62,-175 149.62,-116 149.62,-116 149.62,-110 155.62,-104 161.62,-104 161.62,-104 269.88,-104 269.88,-104 275.88,-104 281.88,-110 281.88,-116 281.88,-116 281.88,-175 281.88,-175 281.88,-181 275.88,-187 269.88,-187"/>
<text text-anchor="middle" x="215.75" y="-169.7" font-family="Helvetica,sans-Serif" font-size="14.00">SoundSleep &lt;= 5.5</text>
<text text-anchor="middle" x="215.75" y="-154.7" font-family="Helvetica,sans-Serif" font-size="14.00">entropy = 0.307</text>
<text text-anchor="middle" x="215.75" y="-139.7" font-family="Helvetica,sans-Serif" font-size="14.00">samples = 529</text>
<text text-anchor="middle" x="215.75" y="-124.7" font-family="Helvetica,sans-Serif" font-size="14.00">value = [500, 29]</text>
<text text-anchor="middle" x="215.75" y="-109.7" font-family="Helvetica,sans-Serif" font-size="14.00">class = diabetic_no</text>
</g>
<!-- 1&#45;&gt;2 -->
<g id="edge2" class="edge">
<title>1&#45;&gt;2</title>
<path fill="none" stroke="black" d="M383.91,-226.48C354.57,-212.53 321.25,-196.68 292.05,-182.79"/>
<polygon fill="black" stroke="black" points="293.86,-179.3 283.32,-178.16 290.85,-185.62 293.86,-179.3"/>
</g>
<!-- 5 -->
<g id="node6" class="node">
<title>5</title>
<path fill="#cae5f8" stroke="black" d="M544,-187C544,-187 379.5,-187 379.5,-187 373.5,-187 367.5,-181 367.5,-175 367.5,-175 367.5,-116 367.5,-116 367.5,-110 373.5,-104 379.5,-104 379.5,-104 544,-104 544,-104 550,-104 556,-110 556,-116 556,-116 556,-175 556,-175 556,-181 550,-187 544,-187"/>
<text text-anchor="middle" x="461.75" y="-169.7" font-family="Helvetica,sans-Serif" font-size="14.00">Family_Diabetes_yes &lt;= 0.5</text>
<text text-anchor="middle" x="461.75" y="-154.7" font-family="Helvetica,sans-Serif" font-size="14.00">entropy = 0.983</text>
<text text-anchor="middle" x="461.75" y="-139.7" font-family="Helvetica,sans-Serif" font-size="14.00">samples = 26</text>
<text text-anchor="middle" x="461.75" y="-124.7" font-family="Helvetica,sans-Serif" font-size="14.00">value = [11, 15]</text>
<text text-anchor="middle" x="461.75" y="-109.7" font-family="Helvetica,sans-Serif" font-size="14.00">class = diabetic_yes</text>
</g>
<!-- 1&#45;&gt;5 -->
<g id="edge5" class="edge">
<title>1&#45;&gt;5</title>
<path fill="none" stroke="black" d="M461.75,-222.58C461.75,-214.7 461.75,-206.34 461.75,-198.17"/>
<polygon fill="black" stroke="black" points="465.25,-198.2 461.75,-188.2 458.25,-198.2 465.25,-198.2"/>
</g>
<!-- 3 -->
<g id="node4" class="node">
<title>3</title>
<path fill="#e5823a" stroke="black" d="M119.5,-68C119.5,-68 12,-68 12,-68 6,-68 0,-62 0,-56 0,-56 0,-12 0,-12 0,-6 6,0 12,0 12,0 119.5,0 119.5,0 125.5,0 131.5,-6 131.5,-12 131.5,-12 131.5,-56 131.5,-56 131.5,-62 125.5,-68 119.5,-68"/>
<text text-anchor="middle" x="65.75" y="-50.7" font-family="Helvetica,sans-Serif" font-size="14.00">entropy = 0.039</text>
<text text-anchor="middle" x="65.75" y="-35.7" font-family="Helvetica,sans-Serif" font-size="14.00">samples = 240</text>
<text text-anchor="middle" x="65.75" y="-20.7" font-family="Helvetica,sans-Serif" font-size="14.00">value = [239, 1]</text>
<text text-anchor="middle" x="65.75" y="-5.7" font-family="Helvetica,sans-Serif" font-size="14.00">class = diabetic_no</text>
</g>
<!-- 2&#45;&gt;3 -->
<g id="edge3" class="edge">
<title>2&#45;&gt;3</title>
<path fill="none" stroke="black" d="M159.9,-103.73C146.9,-94.24 133.09,-84.16 120.16,-74.72"/>
<polygon fill="black" stroke="black" points="122.51,-71.37 112.37,-68.3 118.38,-77.02 122.51,-71.37"/>
</g>
<!-- 4 -->
<g id="node5" class="node">
<title>4</title>
<path fill="#e88f4e" stroke="black" d="M269.5,-68C269.5,-68 162,-68 162,-68 156,-68 150,-62 150,-56 150,-56 150,-12 150,-12 150,-6 156,0 162,0 162,0 269.5,0 269.5,0 275.5,0 281.5,-6 281.5,-12 281.5,-12 281.5,-56 281.5,-56 281.5,-62 275.5,-68 269.5,-68"/>
<text text-anchor="middle" x="215.75" y="-50.7" font-family="Helvetica,sans-Serif" font-size="14.00">entropy = 0.459</text>
<text text-anchor="middle" x="215.75" y="-35.7" font-family="Helvetica,sans-Serif" font-size="14.00">samples = 289</text>
<text text-anchor="middle" x="215.75" y="-20.7" font-family="Helvetica,sans-Serif" font-size="14.00">value = [261, 28]</text>
<text text-anchor="middle" x="215.75" y="-5.7" font-family="Helvetica,sans-Serif" font-size="14.00">class = diabetic_no</text>
</g>
<!-- 2&#45;&gt;4 -->
<g id="edge4" class="edge">
<title>2&#45;&gt;4</title>
<path fill="none" stroke="black" d="M215.75,-103.73C215.75,-95.7 215.75,-87.24 215.75,-79.11"/>
<polygon fill="black" stroke="black" points="219.25,-79.3 215.75,-69.3 212.25,-79.3 219.25,-79.3"/>
</g>
<!-- 6 -->
<g id="node7" class="node">
<title>6</title>
<path fill="#f6d1b7" stroke="black" d="M419.5,-68C419.5,-68 312,-68 312,-68 306,-68 300,-62 300,-56 300,-56 300,-12 300,-12 300,-6 306,0 312,0 312,0 419.5,0 419.5,0 425.5,0 431.5,-6 431.5,-12 431.5,-12 431.5,-56 431.5,-56 431.5,-62 425.5,-68 419.5,-68"/>
<text text-anchor="middle" x="365.75" y="-50.7" font-family="Helvetica,sans-Serif" font-size="14.00">entropy = 0.964</text>
<text text-anchor="middle" x="365.75" y="-35.7" font-family="Helvetica,sans-Serif" font-size="14.00">samples = 18</text>
<text text-anchor="middle" x="365.75" y="-20.7" font-family="Helvetica,sans-Serif" font-size="14.00">value = [11, 7]</text>
<text text-anchor="middle" x="365.75" y="-5.7" font-family="Helvetica,sans-Serif" font-size="14.00">class = diabetic_no</text>
</g>
<!-- 5&#45;&gt;6 -->
<g id="edge6" class="edge">
<title>5&#45;&gt;6</title>
<path fill="none" stroke="black" d="M426,-103.73C418.17,-94.79 409.86,-85.32 402.01,-76.36"/>
<polygon fill="black" stroke="black" points="404.17,-74.51 394.94,-69.3 398.9,-79.13 404.17,-74.51"/>
</g>
<!-- 7 -->
<g id="node8" class="node">
<title>7</title>
<path fill="#399de5" stroke="black" d="M575.5,-68C575.5,-68 462,-68 462,-68 456,-68 450,-62 450,-56 450,-56 450,-12 450,-12 450,-6 456,0 462,0 462,0 575.5,0 575.5,0 581.5,0 587.5,-6 587.5,-12 587.5,-12 587.5,-56 587.5,-56 587.5,-62 581.5,-68 575.5,-68"/>
<text text-anchor="middle" x="518.75" y="-50.7" font-family="Helvetica,sans-Serif" font-size="14.00">entropy = 0.0</text>
<text text-anchor="middle" x="518.75" y="-35.7" font-family="Helvetica,sans-Serif" font-size="14.00">samples = 8</text>
<text text-anchor="middle" x="518.75" y="-20.7" font-family="Helvetica,sans-Serif" font-size="14.00">value = [0, 8]</text>
<text text-anchor="middle" x="518.75" y="-5.7" font-family="Helvetica,sans-Serif" font-size="14.00">class = diabetic_yes</text>
</g>
<!-- 5&#45;&gt;7 -->
<g id="edge7" class="edge">
<title>5&#45;&gt;7</title>
<path fill="none" stroke="black" d="M482.97,-103.73C487.34,-95.34 491.96,-86.47 496.36,-78.01"/>
<polygon fill="black" stroke="black" points="499.9,-79.79 501.42,-69.3 493.69,-76.55 499.9,-79.79"/>
</g>
<!-- 9 -->
<g id="node10" class="node">
<title>9</title>
<path fill="#81c1ef" stroke="black" d="M834.88,-187C834.88,-187 606.62,-187 606.62,-187 600.62,-187 594.62,-181 594.62,-175 594.62,-175 594.62,-116 594.62,-116 594.62,-110 600.62,-104 606.62,-104 606.62,-104 834.88,-104 834.88,-104 840.88,-104 846.88,-110 846.88,-116 846.88,-116 846.88,-175 846.88,-175 846.88,-181 840.88,-187 834.88,-187"/>
<text text-anchor="middle" x="720.75" y="-169.7" font-family="Helvetica,sans-Serif" font-size="14.00">PhysicallyActive_one hr or more &lt;= 0.5</text>
<text text-anchor="middle" x="720.75" y="-154.7" font-family="Helvetica,sans-Serif" font-size="14.00">entropy = 0.838</text>
<text text-anchor="middle" x="720.75" y="-139.7" font-family="Helvetica,sans-Serif" font-size="14.00">samples = 239</text>
<text text-anchor="middle" x="720.75" y="-124.7" font-family="Helvetica,sans-Serif" font-size="14.00">value = [64, 175]</text>
<text text-anchor="middle" x="720.75" y="-109.7" font-family="Helvetica,sans-Serif" font-size="14.00">class = diabetic_yes</text>
</g>
<!-- 8&#45;&gt;9 -->
<g id="edge9" class="edge">
<title>8&#45;&gt;9</title>
<path fill="none" stroke="black" d="M720.75,-222.58C720.75,-214.7 720.75,-206.34 720.75,-198.17"/>
<polygon fill="black" stroke="black" points="724.25,-198.2 720.75,-188.2 717.25,-198.2 724.25,-198.2"/>
</g>
<!-- 12 -->
<g id="node13" class="node">
<title>12</title>
<path fill="#f1ba93" stroke="black" d="M1044.62,-187C1044.62,-187 922.88,-187 922.88,-187 916.88,-187 910.88,-181 910.88,-175 910.88,-175 910.88,-116 910.88,-116 910.88,-110 916.88,-104 922.88,-104 922.88,-104 1044.62,-104 1044.62,-104 1050.62,-104 1056.62,-110 1056.62,-116 1056.62,-116 1056.62,-175 1056.62,-175 1056.62,-181 1050.62,-187 1044.62,-187"/>
<text text-anchor="middle" x="983.75" y="-169.7" font-family="Helvetica,sans-Serif" font-size="14.00">Stress_always &lt;= 0.5</text>
<text text-anchor="middle" x="983.75" y="-154.7" font-family="Helvetica,sans-Serif" font-size="14.00">entropy = 0.895</text>
<text text-anchor="middle" x="983.75" y="-139.7" font-family="Helvetica,sans-Serif" font-size="14.00">samples = 61</text>
<text text-anchor="middle" x="983.75" y="-124.7" font-family="Helvetica,sans-Serif" font-size="14.00">value = [42, 19]</text>
<text text-anchor="middle" x="983.75" y="-109.7" font-family="Helvetica,sans-Serif" font-size="14.00">class = diabetic_no</text>
</g>
<!-- 8&#45;&gt;12 -->
<g id="edge12" class="edge">
<title>8&#45;&gt;12</title>
<path fill="none" stroke="black" d="M802.52,-227.12C833.68,-213.26 869.21,-197.46 900.5,-183.53"/>
<polygon fill="black" stroke="black" points="901.79,-186.35 909.5,-179.08 898.94,-179.95 901.79,-186.35"/>
</g>
<!-- 10 -->
<g id="node11" class="node">
<title>10</title>
<path fill="#95caf1" stroke="black" d="M731.5,-68C731.5,-68 618,-68 618,-68 612,-68 606,-62 606,-56 606,-56 606,-12 606,-12 606,-6 612,0 618,0 618,0 731.5,0 731.5,0 737.5,0 743.5,-6 743.5,-12 743.5,-12 743.5,-56 743.5,-56 743.5,-62 737.5,-68 731.5,-68"/>
<text text-anchor="middle" x="674.75" y="-50.7" font-family="Helvetica,sans-Serif" font-size="14.00">entropy = 0.901</text>
<text text-anchor="middle" x="674.75" y="-35.7" font-family="Helvetica,sans-Serif" font-size="14.00">samples = 202</text>
<text text-anchor="middle" x="674.75" y="-20.7" font-family="Helvetica,sans-Serif" font-size="14.00">value = [64, 138]</text>
<text text-anchor="middle" x="674.75" y="-5.7" font-family="Helvetica,sans-Serif" font-size="14.00">class = diabetic_yes</text>
</g>
<!-- 9&#45;&gt;10 -->
<g id="edge10" class="edge">
<title>9&#45;&gt;10</title>
<path fill="none" stroke="black" d="M703.62,-103.73C700.13,-95.43 696.45,-86.67 692.93,-78.28"/>
<polygon fill="black" stroke="black" points="695.84,-77.16 688.74,-69.3 689.39,-79.87 695.84,-77.16"/>
</g>
<!-- 11 -->
<g id="node12" class="node">
<title>11</title>
<path fill="#399de5" stroke="black" d="M887.5,-68C887.5,-68 774,-68 774,-68 768,-68 762,-62 762,-56 762,-56 762,-12 762,-12 762,-6 768,0 774,0 774,0 887.5,0 887.5,0 893.5,0 899.5,-6 899.5,-12 899.5,-12 899.5,-56 899.5,-56 899.5,-62 893.5,-68 887.5,-68"/>
<text text-anchor="middle" x="830.75" y="-50.7" font-family="Helvetica,sans-Serif" font-size="14.00">entropy = 0.0</text>
<text text-anchor="middle" x="830.75" y="-35.7" font-family="Helvetica,sans-Serif" font-size="14.00">samples = 37</text>
<text text-anchor="middle" x="830.75" y="-20.7" font-family="Helvetica,sans-Serif" font-size="14.00">value = [0, 37]</text>
<text text-anchor="middle" x="830.75" y="-5.7" font-family="Helvetica,sans-Serif" font-size="14.00">class = diabetic_yes</text>
</g>
<!-- 9&#45;&gt;11 -->
<g id="edge11" class="edge">
<title>9&#45;&gt;11</title>
<path fill="none" stroke="black" d="M761.71,-103.73C770.87,-94.61 780.59,-84.93 789.76,-75.81"/>
<polygon fill="black" stroke="black" points="791.68,-78.84 796.3,-69.3 786.74,-73.87 791.68,-78.84"/>
</g>
<!-- 13 -->
<g id="node14" class="node">
<title>13</title>
<path fill="#ea995f" stroke="black" d="M1037.5,-68C1037.5,-68 930,-68 930,-68 924,-68 918,-62 918,-56 918,-56 918,-12 918,-12 918,-6 924,0 930,0 930,0 1037.5,0 1037.5,0 1043.5,0 1049.5,-6 1049.5,-12 1049.5,-12 1049.5,-56 1049.5,-56 1049.5,-62 1043.5,-68 1037.5,-68"/>
<text text-anchor="middle" x="983.75" y="-50.7" font-family="Helvetica,sans-Serif" font-size="14.00">entropy = 0.634</text>
<text text-anchor="middle" x="983.75" y="-35.7" font-family="Helvetica,sans-Serif" font-size="14.00">samples = 50</text>
<text text-anchor="middle" x="983.75" y="-20.7" font-family="Helvetica,sans-Serif" font-size="14.00">value = [42, 8]</text>
<text text-anchor="middle" x="983.75" y="-5.7" font-family="Helvetica,sans-Serif" font-size="14.00">class = diabetic_no</text>
</g>
<!-- 12&#45;&gt;13 -->
<g id="edge13" class="edge">
<title>12&#45;&gt;13</title>
<path fill="none" stroke="black" d="M983.75,-103.73C983.75,-95.7 983.75,-87.24 983.75,-79.11"/>
<polygon fill="black" stroke="black" points="987.25,-79.3 983.75,-69.3 980.25,-79.3 987.25,-79.3"/>
</g>
<!-- 14 -->
<g id="node15" class="node">
<title>14</title>
<path fill="#399de5" stroke="black" d="M1193.5,-68C1193.5,-68 1080,-68 1080,-68 1074,-68 1068,-62 1068,-56 1068,-56 1068,-12 1068,-12 1068,-6 1074,0 1080,0 1080,0 1193.5,0 1193.5,0 1199.5,0 1205.5,-6 1205.5,-12 1205.5,-12 1205.5,-56 1205.5,-56 1205.5,-62 1199.5,-68 1193.5,-68"/>
<text text-anchor="middle" x="1136.75" y="-50.7" font-family="Helvetica,sans-Serif" font-size="14.00">entropy = 0.0</text>
<text text-anchor="middle" x="1136.75" y="-35.7" font-family="Helvetica,sans-Serif" font-size="14.00">samples = 11</text>
<text text-anchor="middle" x="1136.75" y="-20.7" font-family="Helvetica,sans-Serif" font-size="14.00">value = [0, 11]</text>
<text text-anchor="middle" x="1136.75" y="-5.7" font-family="Helvetica,sans-Serif" font-size="14.00">class = diabetic_yes</text>
</g>
<!-- 12&#45;&gt;14 -->
<g id="edge14" class="edge">
<title>12&#45;&gt;14</title>
<path fill="none" stroke="black" d="M1040.72,-103.73C1054.1,-94.15 1068.34,-83.96 1081.64,-74.44"/>
<polygon fill="black" stroke="black" points="1083.13,-76.97 1089.22,-68.3 1079.05,-71.27 1083.13,-76.97"/>
</g>
</g>
</svg>
