<?xml version="1.0" encoding="UTF-8" standalone="no"?>
<!DOCTYPE svg PUBLIC "-//W3C//DTD SVG 1.1//EN"
 "http://www.w3.org/Graphics/SVG/1.1/DTD/svg11.dtd">
<!-- Generated by graphviz version 8.0.5 (20230430.1635)
 -->
<!-- Title: Tree Pages: 1 -->
<svg width="1226pt" height="433pt"
 viewBox="0.00 0.00 1225.50 433.00" xmlns="http://www.w3.org/2000/svg" xmlns:xlink="http://www.w3.org/1999/xlink">
<g id="graph0" class="graph" transform="scale(1 1) rotate(0) translate(4 429)">
<title>Tree</title>
<polygon fill="white" stroke="none" points="-4,4 -4,-429 1221.5,-429 1221.5,4 -4,4"/>
<!-- 0 -->
<g id="node1" class="node">
<title>0</title>
<path fill="#f3c4a2" stroke="black" d="M671.5,-425C671.5,-425 558,-425 558,-425 552,-425 546,-419 546,-413 546,-413 546,-354 546,-354 546,-348 552,-342 558,-342 558,-342 671.5,-342 671.5,-342 677.5,-342 683.5,-348 683.5,-354 683.5,-354 683.5,-413 683.5,-413 683.5,-419 677.5,-425 671.5,-425"/>
<text text-anchor="middle" x="614.75" y="-407.7" font-family="Helvetica,sans-Serif" font-size="14.00">Glucose &lt;= 123.5</text>
<text text-anchor="middle" x="614.75" y="-392.7" font-family="Helvetica,sans-Serif" font-size="14.00">entropy = 0.931</text>
<text text-anchor="middle" x="614.75" y="-377.7" font-family="Helvetica,sans-Serif" font-size="14.00">samples = 1600</text>
<text text-anchor="middle" x="614.75" y="-362.7" font-family="Helvetica,sans-Serif" font-size="14.00">value = [1045, 555]</text>
<text text-anchor="middle" x="614.75" y="-347.7" font-family="Helvetica,sans-Serif" font-size="14.00">class = diabetic_yes</text>
</g>
<!-- 1 -->
<g id="node2" class="node">
<title>1</title>
<path fill="#ea9b61" stroke="black" d="M515.5,-306C515.5,-306 402,-306 402,-306 396,-306 390,-300 390,-294 390,-294 390,-235 390,-235 390,-229 396,-223 402,-223 402,-223 515.5,-223 515.5,-223 521.5,-223 527.5,-229 527.5,-235 527.5,-235 527.5,-294 527.5,-294 527.5,-300 521.5,-306 515.5,-306"/>
<text text-anchor="middle" x="458.75" y="-288.7" font-family="Helvetica,sans-Serif" font-size="14.00">BMI &lt;= 26.9</text>
<text text-anchor="middle" x="458.75" y="-273.7" font-family="Helvetica,sans-Serif" font-size="14.00">entropy = 0.655</text>
<text text-anchor="middle" x="458.75" y="-258.7" font-family="Helvetica,sans-Serif" font-size="14.00">samples = 912</text>
<text text-anchor="middle" x="458.75" y="-243.7" font-family="Helvetica,sans-Serif" font-size="14.00">value = [758, 154]</text>
<text text-anchor="middle" x="458.75" y="-228.7" font-family="Helvetica,sans-Serif" font-size="14.00">class = diabetic_yes</text>
</g>
<!-- 0&#45;&gt;1 -->
<g id="edge1" class="edge">
<title>0&#45;&gt;1</title>
<path fill="none" stroke="black" d="M560.19,-341.58C547.84,-332.32 534.62,-322.41 521.95,-312.9"/>
<polygon fill="black" stroke="black" points="524.38,-309.6 514.28,-306.4 520.18,-315.2 524.38,-309.6"/>
<text text-anchor="middle" x="516.82" y="-325.35" font-family="Helvetica,sans-Serif" font-size="14.00">True</text>
</g>
<!-- 8 -->
<g id="node9" class="node">
<title>8</title>
<path fill="#c7e3f8" stroke="black" d="M824.5,-306C824.5,-306 717,-306 717,-306 711,-306 705,-300 705,-294 705,-294 705,-235 705,-235 705,-229 711,-223 717,-223 717,-223 824.5,-223 824.5,-223 830.5,-223 836.5,-229 836.5,-235 836.5,-235 836.5,-294 836.5,-294 836.5,-300 830.5,-306 824.5,-306"/>
<text text-anchor="middle" x="770.75" y="-288.7" font-family="Helvetica,sans-Serif" font-size="14.00">BMI &lt;= 29.95</text>
<text text-anchor="middle" x="770.75" y="-273.7" font-family="Helvetica,sans-Serif" font-size="14.00">entropy = 0.98</text>
<text text-anchor="middle" x="770.75" y="-258.7" font-family="Helvetica,sans-Serif" font-size="14.00">samples = 688</text>
<text text-anchor="middle" x="770.75" y="-243.7" font-family="Helvetica,sans-Serif" font-size="14.00">value = [287, 401]</text>
<text text-anchor="middle" x="770.75" y="-228.7" font-family="Helvetica,sans-Serif" font-size="14.00">class = diabetic_no</text>
</g>
<!-- 0&#45;&gt;8 -->
<g id="edge8" class="edge">
<title>0&#45;&gt;8</title>
<path fill="none" stroke="black" d="M669.31,-341.58C681.66,-332.32 694.88,-322.41 707.55,-312.9"/>
<polygon fill="black" stroke="black" points="709.32,-315.2 715.22,-306.4 705.12,-309.6 709.32,-315.2"/>
<text text-anchor="middle" x="712.68" y="-325.35" font-family="Helvetica,sans-Serif" font-size="14.00">False</text>
</g>
<!-- 2 -->
<g id="node3" class="node">
<title>2</title>
<path fill="#e5823a" stroke="black" d="M281.5,-187C281.5,-187 168,-187 168,-187 162,-187 156,-181 156,-175 156,-175 156,-116 156,-116 156,-110 162,-104 168,-104 168,-104 281.5,-104 281.5,-104 287.5,-104 293.5,-110 293.5,-116 293.5,-116 293.5,-175 293.5,-175 293.5,-181 287.5,-187 281.5,-187"/>
<text text-anchor="middle" x="224.75" y="-169.7" font-family="Helvetica,sans-Serif" font-size="14.00">Insulin &lt;= 48.5</text>
<text text-anchor="middle" x="224.75" y="-154.7" font-family="Helvetica,sans-Serif" font-size="14.00">entropy = 0.038</text>
<text text-anchor="middle" x="224.75" y="-139.7" font-family="Helvetica,sans-Serif" font-size="14.00">samples = 248</text>
<text text-anchor="middle" x="224.75" y="-124.7" font-family="Helvetica,sans-Serif" font-size="14.00">value = [247, 1]</text>
<text text-anchor="middle" x="224.75" y="-109.7" font-family="Helvetica,sans-Serif" font-size="14.00">class = diabetic_yes</text>
</g>
<!-- 1&#45;&gt;2 -->
<g id="edge2" class="edge">
<title>1&#45;&gt;2</title>
<path fill="none" stroke="black" d="M389.81,-229.03C362.67,-215.46 331.37,-199.81 303.36,-185.8"/>
<polygon fill="black" stroke="black" points="305.11,-182.27 294.6,-180.93 301.98,-188.53 305.11,-182.27"/>
</g>
<!-- 5 -->
<g id="node6" class="node">
<title>5</title>
<path fill="#eda774" stroke="black" d="M515.5,-187C515.5,-187 402,-187 402,-187 396,-187 390,-181 390,-175 390,-175 390,-116 390,-116 390,-110 396,-104 402,-104 402,-104 515.5,-104 515.5,-104 521.5,-104 527.5,-110 527.5,-116 527.5,-116 527.5,-175 527.5,-175 527.5,-181 521.5,-187 515.5,-187"/>
<text text-anchor="middle" x="458.75" y="-169.7" font-family="Helvetica,sans-Serif" font-size="14.00">Age &lt;= 29.5</text>
<text text-anchor="middle" x="458.75" y="-154.7" font-family="Helvetica,sans-Serif" font-size="14.00">entropy = 0.779</text>
<text text-anchor="middle" x="458.75" y="-139.7" font-family="Helvetica,sans-Serif" font-size="14.00">samples = 664</text>
<text text-anchor="middle" x="458.75" y="-124.7" font-family="Helvetica,sans-Serif" font-size="14.00">value = [511, 153]</text>
<text text-anchor="middle" x="458.75" y="-109.7" font-family="Helvetica,sans-Serif" font-size="14.00">class = diabetic_yes</text>
</g>
<!-- 1&#45;&gt;5 -->
<g id="edge5" class="edge">
<title>1&#45;&gt;5</title>
<path fill="none" stroke="black" d="M458.75,-222.58C458.75,-214.7 458.75,-206.34 458.75,-198.17"/>
<polygon fill="black" stroke="black" points="462.25,-198.2 458.75,-188.2 455.25,-198.2 462.25,-198.2"/>
</g>
<!-- 3 -->
<g id="node4" class="node">
<title>3</title>
<path fill="#e68844" stroke="black" d="M125.5,-68C125.5,-68 12,-68 12,-68 6,-68 0,-62 0,-56 0,-56 0,-12 0,-12 0,-6 6,0 12,0 12,0 125.5,0 125.5,0 131.5,0 137.5,-6 137.5,-12 137.5,-12 137.5,-56 137.5,-56 137.5,-62 131.5,-68 125.5,-68"/>
<text text-anchor="middle" x="68.75" y="-50.7" font-family="Helvetica,sans-Serif" font-size="14.00">entropy = 0.297</text>
<text text-anchor="middle" x="68.75" y="-35.7" font-family="Helvetica,sans-Serif" font-size="14.00">samples = 19</text>
<text text-anchor="middle" x="68.75" y="-20.7" font-family="Helvetica,sans-Serif" font-size="14.00">value = [18, 1]</text>
<text text-anchor="middle" x="68.75" y="-5.7" font-family="Helvetica,sans-Serif" font-size="14.00">class = diabetic_yes</text>
</g>
<!-- 2&#45;&gt;3 -->
<g id="edge3" class="edge">
<title>2&#45;&gt;3</title>
<path fill="none" stroke="black" d="M166.66,-103.73C153.02,-94.15 138.5,-83.96 124.94,-74.44"/>
<polygon fill="black" stroke="black" points="127.39,-71.18 117.19,-68.3 123.36,-76.91 127.39,-71.18"/>
</g>
<!-- 4 -->
<g id="node5" class="node">
<title>4</title>
<path fill="#e58139" stroke="black" d="M281.5,-68C281.5,-68 168,-68 168,-68 162,-68 156,-62 156,-56 156,-56 156,-12 156,-12 156,-6 162,0 168,0 168,0 281.5,0 281.5,0 287.5,0 293.5,-6 293.5,-12 293.5,-12 293.5,-56 293.5,-56 293.5,-62 287.5,-68 281.5,-68"/>
<text text-anchor="middle" x="224.75" y="-50.7" font-family="Helvetica,sans-Serif" font-size="14.00">entropy = 0.0</text>
<text text-anchor="middle" x="224.75" y="-35.7" font-family="Helvetica,sans-Serif" font-size="14.00">samples = 229</text>
<text text-anchor="middle" x="224.75" y="-20.7" font-family="Helvetica,sans-Serif" font-size="14.00">value = [229, 0]</text>
<text text-anchor="middle" x="224.75" y="-5.7" font-family="Helvetica,sans-Serif" font-size="14.00">class = diabetic_yes</text>
</g>
<!-- 2&#45;&gt;4 -->
<g id="edge4" class="edge">
<title>2&#45;&gt;4</title>
<path fill="none" stroke="black" d="M224.75,-103.73C224.75,-95.7 224.75,-87.24 224.75,-79.11"/>
<polygon fill="black" stroke="black" points="228.25,-79.3 224.75,-69.3 221.25,-79.3 228.25,-79.3"/>
</g>
<!-- 6 -->
<g id="node7" class="node">
<title>6</title>
<path fill="#e89050" stroke="black" d="M437.5,-68C437.5,-68 324,-68 324,-68 318,-68 312,-62 312,-56 312,-56 312,-12 312,-12 312,-6 318,0 324,0 324,0 437.5,0 437.5,0 443.5,0 449.5,-6 449.5,-12 449.5,-12 449.5,-56 449.5,-56 449.5,-62 443.5,-68 437.5,-68"/>
<text text-anchor="middle" x="380.75" y="-50.7" font-family="Helvetica,sans-Serif" font-size="14.00">entropy = 0.484</text>
<text text-anchor="middle" x="380.75" y="-35.7" font-family="Helvetica,sans-Serif" font-size="14.00">samples = 391</text>
<text text-anchor="middle" x="380.75" y="-20.7" font-family="Helvetica,sans-Serif" font-size="14.00">value = [350, 41]</text>
<text text-anchor="middle" x="380.75" y="-5.7" font-family="Helvetica,sans-Serif" font-size="14.00">class = diabetic_yes</text>
</g>
<!-- 5&#45;&gt;6 -->
<g id="edge6" class="edge">
<title>5&#45;&gt;6</title>
<path fill="none" stroke="black" d="M429.71,-103.73C423.53,-95.06 417,-85.9 410.8,-77.18"/>
<polygon fill="black" stroke="black" points="413.12,-75.41 404.47,-69.3 407.42,-79.48 413.12,-75.41"/>
</g>
<!-- 7 -->
<g id="node8" class="node">
<title>7</title>
<path fill="#f7d9c3" stroke="black" d="M593.5,-68C593.5,-68 480,-68 480,-68 474,-68 468,-62 468,-56 468,-56 468,-12 468,-12 468,-6 474,0 480,0 480,0 593.5,0 593.5,0 599.5,0 605.5,-6 605.5,-12 605.5,-12 605.5,-56 605.5,-56 605.5,-62 599.5,-68 593.5,-68"/>
<text text-anchor="middle" x="536.75" y="-50.7" font-family="Helvetica,sans-Serif" font-size="14.00">entropy = 0.977</text>
<text text-anchor="middle" x="536.75" y="-35.7" font-family="Helvetica,sans-Serif" font-size="14.00">samples = 273</text>
<text text-anchor="middle" x="536.75" y="-20.7" font-family="Helvetica,sans-Serif" font-size="14.00">value = [161, 112]</text>
<text text-anchor="middle" x="536.75" y="-5.7" font-family="Helvetica,sans-Serif" font-size="14.00">class = diabetic_yes</text>
</g>
<!-- 5&#45;&gt;7 -->
<g id="edge7" class="edge">
<title>5&#45;&gt;7</title>
<path fill="none" stroke="black" d="M487.79,-103.73C493.97,-95.06 500.5,-85.9 506.7,-77.18"/>
<polygon fill="black" stroke="black" points="510.08,-79.48 513.03,-69.3 504.38,-75.41 510.08,-79.48"/>
</g>
<!-- 9 -->
<g id="node10" class="node">
<title>9</title>
<path fill="#f2bf9b" stroke="black" d="M827.5,-187C827.5,-187 714,-187 714,-187 708,-187 702,-181 702,-175 702,-175 702,-116 702,-116 702,-110 708,-104 714,-104 714,-104 827.5,-104 827.5,-104 833.5,-104 839.5,-110 839.5,-116 839.5,-116 839.5,-175 839.5,-175 839.5,-181 833.5,-187 827.5,-187"/>
<text text-anchor="middle" x="770.75" y="-169.7" font-family="Helvetica,sans-Serif" font-size="14.00">Age &lt;= 22.5</text>
<text text-anchor="middle" x="770.75" y="-154.7" font-family="Helvetica,sans-Serif" font-size="14.00">entropy = 0.915</text>
<text text-anchor="middle" x="770.75" y="-139.7" font-family="Helvetica,sans-Serif" font-size="14.00">samples = 206</text>
<text text-anchor="middle" x="770.75" y="-124.7" font-family="Helvetica,sans-Serif" font-size="14.00">value = [138, 68]</text>
<text text-anchor="middle" x="770.75" y="-109.7" font-family="Helvetica,sans-Serif" font-size="14.00">class = diabetic_yes</text>
</g>
<!-- 8&#45;&gt;9 -->
<g id="edge9" class="edge">
<title>8&#45;&gt;9</title>
<path fill="none" stroke="black" d="M770.75,-222.58C770.75,-214.7 770.75,-206.34 770.75,-198.17"/>
<polygon fill="black" stroke="black" points="774.25,-198.2 770.75,-188.2 767.25,-198.2 774.25,-198.2"/>
</g>
<!-- 12 -->
<g id="node13" class="node">
<title>12</title>
<path fill="#92c9f1" stroke="black" d="M1055.5,-187C1055.5,-187 948,-187 948,-187 942,-187 936,-181 936,-175 936,-175 936,-116 936,-116 936,-110 942,-104 948,-104 948,-104 1055.5,-104 1055.5,-104 1061.5,-104 1067.5,-110 1067.5,-116 1067.5,-116 1067.5,-175 1067.5,-175 1067.5,-181 1061.5,-187 1055.5,-187"/>
<text text-anchor="middle" x="1001.75" y="-169.7" font-family="Helvetica,sans-Serif" font-size="14.00">Glucose &lt;= 154.5</text>
<text text-anchor="middle" x="1001.75" y="-154.7" font-family="Helvetica,sans-Serif" font-size="14.00">entropy = 0.892</text>
<text text-anchor="middle" x="1001.75" y="-139.7" font-family="Helvetica,sans-Serif" font-size="14.00">samples = 482</text>
<text text-anchor="middle" x="1001.75" y="-124.7" font-family="Helvetica,sans-Serif" font-size="14.00">value = [149, 333]</text>
<text text-anchor="middle" x="1001.75" y="-109.7" font-family="Helvetica,sans-Serif" font-size="14.00">class = diabetic_no</text>
</g>
<!-- 8&#45;&gt;12 -->
<g id="edge12" class="edge">
<title>8&#45;&gt;12</title>
<path fill="none" stroke="black" d="M836.95,-229.97C864.73,-215.9 897.21,-199.45 925.95,-184.89"/>
<polygon fill="black" stroke="black" points="927.21,-187.67 934.55,-180.03 924.04,-181.43 927.21,-187.67"/>
</g>
<!-- 10 -->
<g id="node11" class="node">
<title>10</title>
<path fill="#e6843d" stroke="black" d="M749.5,-68C749.5,-68 636,-68 636,-68 630,-68 624,-62 624,-56 624,-56 624,-12 624,-12 624,-6 630,0 636,0 636,0 749.5,0 749.5,0 755.5,0 761.5,-6 761.5,-12 761.5,-12 761.5,-56 761.5,-56 761.5,-62 755.5,-68 749.5,-68"/>
<text text-anchor="middle" x="692.75" y="-50.7" font-family="Helvetica,sans-Serif" font-size="14.00">entropy = 0.144</text>
<text text-anchor="middle" x="692.75" y="-35.7" font-family="Helvetica,sans-Serif" font-size="14.00">samples = 49</text>
<text text-anchor="middle" x="692.75" y="-20.7" font-family="Helvetica,sans-Serif" font-size="14.00">value = [48, 1]</text>
<text text-anchor="middle" x="692.75" y="-5.7" font-family="Helvetica,sans-Serif" font-size="14.00">class = diabetic_yes</text>
</g>
<!-- 9&#45;&gt;10 -->
<g id="edge10" class="edge">
<title>9&#45;&gt;10</title>
<path fill="none" stroke="black" d="M741.71,-103.73C735.53,-95.06 729,-85.9 722.8,-77.18"/>
<polygon fill="black" stroke="black" points="725.12,-75.41 716.47,-69.3 719.42,-79.48 725.12,-75.41"/>
</g>
<!-- 11 -->
<g id="node12" class="node">
<title>11</title>
<path fill="#f8dfcc" stroke="black" d="M905.5,-68C905.5,-68 792,-68 792,-68 786,-68 780,-62 780,-56 780,-56 780,-12 780,-12 780,-6 786,0 792,0 792,0 905.5,0 905.5,0 911.5,0 917.5,-6 917.5,-12 917.5,-12 917.5,-56 917.5,-56 917.5,-62 911.5,-68 905.5,-68"/>
<text text-anchor="middle" x="848.75" y="-50.7" font-family="Helvetica,sans-Serif" font-size="14.00">entropy = 0.984</text>
<text text-anchor="middle" x="848.75" y="-35.7" font-family="Helvetica,sans-Serif" font-size="14.00">samples = 157</text>
<text text-anchor="middle" x="848.75" y="-20.7" font-family="Helvetica,sans-Serif" font-size="14.00">value = [90, 67]</text>
<text text-anchor="middle" x="848.75" y="-5.7" font-family="Helvetica,sans-Serif" font-size="14.00">class = diabetic_yes</text>
</g>
<!-- 9&#45;&gt;11 -->
<g id="edge11" class="edge">
<title>9&#45;&gt;11</title>
<path fill="none" stroke="black" d="M799.79,-103.73C805.97,-95.06 812.5,-85.9 818.7,-77.18"/>
<polygon fill="black" stroke="black" points="822.08,-79.48 825.03,-69.3 816.38,-75.41 822.08,-79.48"/>
</g>
<!-- 13 -->
<g id="node14" class="node">
<title>13</title>
<path fill="#d0e8f9" stroke="black" d="M1055.5,-68C1055.5,-68 948,-68 948,-68 942,-68 936,-62 936,-56 936,-56 936,-12 936,-12 936,-6 942,0 948,0 948,0 1055.5,0 1055.5,0 1061.5,0 1067.5,-6 1067.5,-12 1067.5,-12 1067.5,-56 1067.5,-56 1067.5,-62 1061.5,-68 1055.5,-68"/>
<text text-anchor="middle" x="1001.75" y="-50.7" font-family="Helvetica,sans-Serif" font-size="14.00">entropy = 0.987</text>
<text text-anchor="middle" x="1001.75" y="-35.7" font-family="Helvetica,sans-Serif" font-size="14.00">samples = 263</text>
<text text-anchor="middle" x="1001.75" y="-20.7" font-family="Helvetica,sans-Serif" font-size="14.00">value = [114, 149]</text>
<text text-anchor="middle" x="1001.75" y="-5.7" font-family="Helvetica,sans-Serif" font-size="14.00">class = diabetic_no</text>
</g>
<!-- 12&#45;&gt;13 -->
<g id="edge13" class="edge">
<title>12&#45;&gt;13</title>
<path fill="none" stroke="black" d="M1001.75,-103.73C1001.75,-95.7 1001.75,-87.24 1001.75,-79.11"/>
<polygon fill="black" stroke="black" points="1005.25,-79.3 1001.75,-69.3 998.25,-79.3 1005.25,-79.3"/>
</g>
<!-- 14 -->
<g id="node15" class="node">
<title>14</title>
<path fill="#5fb0ea" stroke="black" d="M1205.5,-68C1205.5,-68 1098,-68 1098,-68 1092,-68 1086,-62 1086,-56 1086,-56 1086,-12 1086,-12 1086,-6 1092,0 1098,0 1098,0 1205.5,0 1205.5,0 1211.5,0 1217.5,-6 1217.5,-12 1217.5,-12 1217.5,-56 1217.5,-56 1217.5,-62 1211.5,-68 1205.5,-68"/>
<text text-anchor="middle" x="1151.75" y="-50.7" font-family="Helvetica,sans-Serif" font-size="14.00">entropy = 0.634</text>
<text text-anchor="middle" x="1151.75" y="-35.7" font-family="Helvetica,sans-Serif" font-size="14.00">samples = 219</text>
<text text-anchor="middle" x="1151.75" y="-20.7" font-family="Helvetica,sans-Serif" font-size="14.00">value = [35, 184]</text>
<text text-anchor="middle" x="1151.75" y="-5.7" font-family="Helvetica,sans-Serif" font-size="14.00">class = diabetic_no</text>
</g>
<!-- 12&#45;&gt;14 -->
<g id="edge14" class="edge">
<title>12&#45;&gt;14</title>
<path fill="none" stroke="black" d="M1057.6,-103.73C1070.6,-94.24 1084.41,-84.16 1097.34,-74.72"/>
<polygon fill="black" stroke="black" points="1099.12,-77.02 1105.13,-68.3 1094.99,-71.37 1099.12,-77.02"/>
</g>
</g>
</svg>
